<svg xmlns="http://www.w3.org/2000/svg" viewBox="0 0 800 460" font-family="'Helvetica Neue', 'Noto Sans KR', 'AppleGothic', Arial, sans-serif">
<rect width="800" height="460" fill="#FBF4E9"/>
<rect x="20" y="20" width="32" height="4" fill="#E3120B"/>
<text x="20" y="50" font-size="17" font-weight="700" fill="#1A1A1A">저소득층의 체감 물가가 더 빨리 오른다</text>
<text x="20" y="70" font-size="12" fill="#5C5C5C">소득계층별 인플레이션 — 전국 평균과의 격차 (%p, 3개월 이동평균)</text>
<rect x="135.2738949754439" y="90" width="12.920287117491483" height="290" fill="#EFE6D4"/>
<line x1="50" y1="357.6923076923077" x2="620" y2="357.6923076923077" stroke="#CDC9C3" stroke-width="0.7"/>
<text x="626" y="361.6923076923077" font-size="11" fill="#1A1A1A">-0.6</text>
<line x1="50" y1="313.0769230769231" x2="620" y2="313.0769230769231" stroke="#CDC9C3" stroke-width="0.7"/>
<text x="626" y="317.0769230769231" font-size="11" fill="#1A1A1A">-0.4</text>
<line x1="50" y1="268.46153846153845" x2="620" y2="268.46153846153845" stroke="#CDC9C3" stroke-width="0.7"/>
<text x="626" y="272.46153846153845" font-size="11" fill="#1A1A1A">-0.2</text>
<line x1="50" y1="223.8461538461538" x2="620" y2="223.8461538461538" stroke="#1A1A1A" stroke-width="0.8"/>
<text x="626" y="227.8461538461538" font-size="11" fill="#1A1A1A">0</text>
<line x1="50" y1="179.23076923076923" x2="620" y2="179.23076923076923" stroke="#CDC9C3" stroke-width="0.7"/>
<text x="626" y="183.23076923076923" font-size="11" fill="#1A1A1A">0.2</text>
<line x1="50" y1="134.61538461538456" x2="620" y2="134.61538461538456" stroke="#CDC9C3" stroke-width="0.7"/>
<text x="626" y="138.61538461538456" font-size="11" fill="#1A1A1A">0.4</text>
<line x1="50" y1="90.0" x2="620" y2="90.0" stroke="#CDC9C3" stroke-width="0.7"/>
<text x="626" y="94.0" font-size="11" fill="#1A1A1A">0.6</text>
<text x="50.0" y="398" font-size="11" fill="#1A1A1A" text-anchor="middle">2019</text>
<text x="128.5984132980733" y="398" font-size="11" fill="#1A1A1A" text-anchor="middle">2020</text>
<text x="207.41216471477142" y="398" font-size="11" fill="#1A1A1A" text-anchor="middle">2021</text>
<text x="286.01057801284475" y="398" font-size="11" fill="#1A1A1A" text-anchor="middle">2022</text>
<text x="364.60899131091804" y="398" font-size="11" fill="#1A1A1A" text-anchor="middle">2023</text>
<text x="443.20740460899134" y="398" font-size="11" fill="#1A1A1A" text-anchor="middle">2024</text>
<text x="522.0211560256895" y="398" font-size="11" fill="#1A1A1A" text-anchor="middle">2025</text>
<text x="600.6195693237628" y="398" font-size="11" fill="#1A1A1A" text-anchor="middle">2026</text>
<path d="M 50.00,212.67 L 56.68,207.33 L 62.70,205.51 L 69.38,204.35 L 75.84,205.83 L 82.52,208.53 L 88.98,213.17 L 95.65,216.49 L 102.33,215.30 L 108.79,210.91 L 115.46,207.56 L 121.92,205.05 L 128.60,201.69 L 135.27,195.78 L 141.52,184.56 L 148.19,172.65 L 154.65,161.40 L 161.33,162.21 L 167.79,168.99 L 174.47,184.07 L 181.14,196.95 L 187.60,206.49 L 194.28,210.36 L 200.74,215.82 L 207.41,219.74 L 214.09,224.34 L 220.12,237.32 L 226.79,257.94 L 233.25,293.68 L 239.93,313.33 L 246.39,317.48 L 253.06,300.54 L 259.74,287.00 L 266.20,286.97 L 272.87,294.84 L 279.34,289.01 L 286.01,276.97 L 292.69,257.19 L 298.72,244.20 L 305.39,225.58 L 311.85,204.08 L 318.53,185.40 L 324.99,170.29 L 331.66,161.12 L 338.34,157.73 L 344.80,152.90 L 351.47,143.22 L 357.93,128.11 L 364.61,121.11 L 371.28,127.64 L 377.31,143.01 L 383.99,158.92 L 390.45,171.25 L 397.13,179.99 L 403.59,184.40 L 410.26,187.78 L 416.94,189.04 L 423.40,188.96 L 430.07,188.08 L 436.53,189.22 L 443.21,188.62 L 449.88,182.44 L 456.13,175.79 L 462.80,170.08 L 469.26,169.79 L 475.94,167.56 L 482.40,170.04 L 489.07,171.35 L 495.75,174.84 L 502.21,177.74 L 508.89,180.44 L 515.35,185.47 L 522.02,190.74 L 528.70,195.96 L 534.73,196.40 L 541.40,194.64 L 547.86,193.99 L 554.54,198.22 L 561.00,201.13 L 567.67,203.30 L 574.35,202.83 L 580.81,203.02 L 587.48,205.48 L 593.94,205.23 L 600.62,205.34 L 607.30,203.40 L 613.32,203.26" fill="none" stroke="#E3120B" stroke-width="2.4" stroke-linecap="round" stroke-linejoin="round"/>
<path d="M 50.00,226.34 L 56.68,227.78 L 62.70,224.87 L 69.38,222.21 L 75.84,222.80 L 82.52,225.36 L 88.98,228.71 L 95.65,230.47 L 102.33,231.55 L 108.79,229.10 L 115.46,223.48 L 121.92,218.80 L 128.60,218.89 L 135.27,228.69 L 141.52,248.35 L 148.19,264.68 L 154.65,269.75 L 161.33,264.23 L 167.79,256.38 L 174.47,250.20 L 181.14,244.82 L 187.60,242.13 L 194.28,241.03 L 200.74,236.58 L 207.41,230.42 L 214.09,220.23 L 220.12,201.54 L 226.79,183.98 L 233.25,173.17 L 239.93,174.64 L 246.39,176.88 L 253.06,178.71 L 259.74,175.73 L 266.20,168.79 L 272.87,163.80 L 279.34,152.81 L 286.01,145.44 L 292.69,133.99 L 298.72,138.11 L 305.39,141.96 L 311.85,145.29 L 318.53,148.87 L 324.99,160.39 L 331.66,174.24 L 338.34,185.11 L 344.80,194.27 L 351.47,210.78 L 357.93,224.22 L 364.61,235.76 L 371.28,247.95 L 377.31,256.01 L 383.99,264.98 L 390.45,270.52 L 397.13,277.15 L 403.59,269.91 L 410.26,255.25 L 416.94,246.15 L 423.40,246.46 L 430.07,245.70 L 436.53,245.96 L 443.21,243.18 L 449.88,239.64 L 456.13,233.81 L 462.80,229.57 L 469.26,231.78 L 475.94,233.16 L 482.40,240.19 L 489.07,244.59 L 495.75,246.60 L 502.21,241.58 L 508.89,234.73 L 515.35,227.82 L 522.02,226.02 L 528.70,230.81 L 534.73,238.84 L 541.40,243.98 L 547.86,243.03 L 554.54,240.90 L 561.00,236.21 L 567.67,231.23 L 574.35,226.31 L 580.81,223.35 L 587.48,225.06 L 593.94,229.68 L 600.62,234.00 L 607.30,223.38 L 613.32,216.02" fill="none" stroke="#9E9E9E" stroke-width="2" stroke-linecap="round" stroke-linejoin="round"/>
<path d="M 50.00,220.80 L 56.68,223.37 L 62.70,227.04 L 69.38,228.65 L 75.84,225.93 L 82.52,220.32 L 88.98,214.67 L 95.65,210.79 L 102.33,210.80 L 108.79,216.30 L 115.46,228.31 L 121.92,238.06 L 128.60,242.00 L 135.27,233.67 L 141.52,219.03 L 148.19,210.15 L 154.65,216.08 L 161.33,223.96 L 167.79,230.75 L 174.47,226.95 L 181.14,224.93 L 187.60,220.11 L 194.28,217.49 L 200.74,219.60 L 207.41,227.01 L 214.09,241.10 L 220.12,258.68 L 226.79,272.54 L 233.25,264.50 L 239.93,250.41 L 246.39,239.37 L 253.06,245.04 L 259.74,256.20 L 266.20,266.20 L 272.87,268.87 L 279.34,280.66 L 286.01,292.45 L 292.69,314.38 L 298.72,320.43 L 305.39,330.56 L 311.85,344.96 L 318.53,356.64 L 324.99,356.93 L 331.66,349.38 L 338.34,339.27 L 344.80,333.29 L 351.47,322.32 L 357.93,319.01 L 364.61,308.74 L 371.28,286.16 L 377.31,263.78 L 383.99,239.11 L 390.45,219.58 L 397.13,200.77 L 403.59,204.37 L 410.26,217.79 L 416.94,225.34 L 423.40,220.77 L 430.07,220.40 L 436.53,217.28 L 443.21,221.12 L 449.88,229.80 L 456.13,240.90 L 462.80,248.78 L 469.26,244.00 L 475.94,243.88 L 482.40,232.44 L 489.07,226.50 L 495.75,222.43 L 502.21,229.52 L 508.89,238.32 L 515.35,244.29 L 522.02,240.59 L 528.70,228.10 L 534.73,215.68 L 541.40,211.61 L 547.86,215.69 L 554.54,217.17 L 561.00,221.96 L 567.67,226.23 L 574.35,232.08 L 580.81,234.31 L 587.48,228.92 L 593.94,222.96 L 600.62,218.24 L 607.30,234.13 L 613.32,244.23" fill="none" stroke="#006BA2" stroke-width="2.4" stroke-linecap="round" stroke-linejoin="round"/>
<text x="624" y="207.26445795153845" font-size="11" font-weight="600" fill="#E3120B">하위 40%</text>
<text x="624" y="221.26445795153845" font-size="11" font-weight="600" fill="#9E9E9E">중간 40%</text>
<text x="624" y="248.2319768476923" font-size="11" font-weight="600" fill="#006BA2">상위 20%</text>
<text x="368.60899131091804" y="115.23076923076923" font-size="10" fill="#E3120B">2023.초 격차 +0.46%p</text>
<text x="20" y="438" font-size="10" fill="#5C5C5C">출처: BLS 소비자지출조사(CEX) 마이크로데이터, BLS 소비자물가지수(CPI).</text>
<text x="20" y="452" font-size="10" fill="#5C5C5C">주: 0보다 위 = 그 그룹이 전국 평균보다 더 높은 인플레이션을 겪음. 음영 = COVID 침체.</text>
</svg>