<svg xmlns="http://www.w3.org/2000/svg" viewBox="0 0 800 460" font-family="'Helvetica Neue', 'Noto Sans KR', 'AppleGothic', Arial, sans-serif">
<rect width="800" height="460" fill="#FBF4E9"/>
<rect x="20" y="20" width="32" height="4" fill="#E3120B"/>
<text x="20" y="50" font-size="17" font-weight="700" fill="#1A1A1A">자산 격차가 진짜 K자의 동력이다</text>
<text x="20" y="70" font-size="12" fill="#5C5C5C">소득분위별 실질 순자산 누적증가율 (2023년 1분기 = 100)</text>
<line x1="50" y1="349.4736842105263" x2="560" y2="349.4736842105263" stroke="#CDC9C3" stroke-width="0.7"/>
<text x="566" y="353.4736842105263" font-size="11" fill="#1A1A1A">100</text>
<line x1="50" y1="273.1578947368421" x2="560" y2="273.1578947368421" stroke="#CDC9C3" stroke-width="0.7"/>
<text x="566" y="277.1578947368421" font-size="11" fill="#1A1A1A">110</text>
<line x1="50" y1="196.84210526315792" x2="560" y2="196.84210526315792" stroke="#CDC9C3" stroke-width="0.7"/>
<text x="566" y="200.84210526315792" font-size="11" fill="#1A1A1A">120</text>
<line x1="50" y1="120.5263157894737" x2="560" y2="120.5263157894737" stroke="#CDC9C3" stroke-width="0.7"/>
<text x="566" y="124.5263157894737" font-size="11" fill="#1A1A1A">130</text>
<text x="50.0" y="398" font-size="11" fill="#1A1A1A" text-anchor="middle">2023</text>
<text x="219.84489051094891" y="398" font-size="11" fill="#1A1A1A" text-anchor="middle">2024</text>
<text x="390.1551094890511" y="398" font-size="11" fill="#1A1A1A" text-anchor="middle">2025</text>
<line x1="50" y1="349.4736842105263" x2="560" y2="349.4736842105263" stroke="#1A1A1A" stroke-width="0.6" stroke-dasharray="2,2" opacity="0.5"/>
<path d="M 50.00,349.47 L 91.88,318.97 L 134.22,333.72 L 177.03,294.91 L 219.84,261.51 L 262.19,248.75 L 304.53,214.58 L 347.34,209.44 L 390.16,232.49 L 432.03,189.43 L 474.38,141.35 L 517.19,120.47" fill="none" stroke="#E3120B" stroke-width="2.6" stroke-linecap="round" stroke-linejoin="round"/>
<path d="M 50.00,349.47 L 91.88,321.42 L 134.22,329.22 L 177.03,302.89 L 219.84,279.03 L 262.19,266.12 L 304.53,245.88 L 347.34,243.63 L 390.16,257.34 L 432.03,228.73 L 474.38,204.14 L 517.19,191.21" fill="none" stroke="#E89B9A" stroke-width="2.2" stroke-linecap="round" stroke-linejoin="round"/>
<path d="M 50.00,349.47 L 91.88,321.43 L 134.22,326.23 L 177.03,305.05 L 219.84,284.87 L 262.19,269.81 L 304.53,255.03 L 347.34,253.70 L 390.16,263.98 L 432.03,239.57 L 474.38,224.26 L 517.19,214.00" fill="none" stroke="#9DC3E6" stroke-width="2" stroke-linecap="round" stroke-linejoin="round"/>
<path d="M 50.00,349.47 L 91.88,319.12 L 134.22,317.30 L 177.03,306.56 L 219.84,297.44 L 262.19,276.60 L 304.53,270.92 L 347.34,272.59 L 390.16,277.41 L 432.03,258.79 L 474.38,256.25 L 517.19,250.60" fill="none" stroke="#9E9E9E" stroke-width="2" stroke-linecap="round" stroke-linejoin="round"/>
<path d="M 50.00,349.47 L 91.88,332.08 L 134.22,334.76 L 177.03,326.24 L 219.84,315.98 L 262.19,307.50 L 304.53,300.76 L 347.34,296.53 L 390.16,303.68 L 432.03,291.30 L 474.38,283.66 L 517.19,275.28" fill="none" stroke="#006BA2" stroke-width="2.2" stroke-linecap="round" stroke-linejoin="round"/>
<text x="598" y="124.47273485297376" font-size="11" font-weight="600" fill="#E3120B">상위 1%</text>
<text x="598" y="195.2083339690789" font-size="11" font-weight="600" fill="#E89B9A">상위 20% (1% 제외)</text>
<text x="598" y="218.00237183850007" font-size="11" font-weight="600" fill="#9DC3E6">상위 60–80%</text>
<text x="598" y="254.5990540357631" font-size="11" font-weight="600" fill="#9E9E9E">하위 20%</text>
<text x="598" y="279.2827697051578" font-size="11" font-weight="600" fill="#006BA2">중간 40%</text>
<text x="20" y="438" font-size="10" fill="#5C5C5C">출처: 연준 분배금융계정(DFA), CPI(Haver Analytics).</text>
<text x="20" y="452" font-size="10" fill="#5C5C5C">주: 소득그룹별 디플레이터로 실질화. 2025년 4분기 기준 상위 1% +30.0% vs 중간 40% +9.7%.</text>
</svg>