<svg xmlns="http://www.w3.org/2000/svg" viewBox="0 0 760 460" font-family="'Helvetica Neue', 'Noto Sans KR', 'AppleGothic', Arial, sans-serif">
<rect width="760" height="460" fill="#FBF4E9"/>
<rect x="20" y="20" width="32" height="4" fill="#E3120B"/>
<text x="20" y="50" font-size="17" font-weight="700" fill="#1A1A1A">임금 격차로는 K자 설명 안 된다</text>
<text x="20" y="70" font-size="12" fill="#5C5C5C">애틀랜타 연준 임금성장률 추적기 — 임금분위별 (전년동월 대비 %)</text>
<line x1="50" y1="380.0" x2="580" y2="380.0" stroke="#1A1A1A" stroke-width="1"/>
<text x="586" y="384.0" font-size="11" fill="#1A1A1A">2</text>
<line x1="50" y1="297.14285714285717" x2="580" y2="297.14285714285717" stroke="#CDC9C3" stroke-width="0.7"/>
<text x="586" y="301.14285714285717" font-size="11" fill="#1A1A1A">4</text>
<line x1="50" y1="214.2857142857143" x2="580" y2="214.2857142857143" stroke="#CDC9C3" stroke-width="0.7"/>
<text x="586" y="218.2857142857143" font-size="11" fill="#1A1A1A">6</text>
<line x1="50" y1="131.42857142857144" x2="580" y2="131.42857142857144" stroke="#CDC9C3" stroke-width="0.7"/>
<text x="586" y="135.42857142857144" font-size="11" fill="#1A1A1A">8</text>
<text x="50.0" y="398" font-size="11" fill="#1A1A1A" text-anchor="middle">2023</text>
<text x="213.11129848229342" y="398" font-size="11" fill="#1A1A1A" text-anchor="middle">2024</text>
<text x="376.6694772344013" y="398" font-size="11" fill="#1A1A1A" text-anchor="middle">2025</text>
<text x="539.7807757166947" y="398" font-size="11" fill="#1A1A1A" text-anchor="middle">2026</text>
<path d="M 50.00,156.29 L 63.85,160.43 L 76.37,164.57 L 90.22,172.86 L 103.63,181.14 L 117.48,193.57 L 130.89,201.86 L 144.74,210.14 L 158.59,218.43 L 172.00,218.43 L 185.85,214.29 L 199.26,218.43 L 213.11,226.71 L 226.96,235.00 L 239.92,239.14 L 253.78,235.00 L 267.18,239.14 L 281.04,243.29 L 294.44,251.57 L 308.30,251.57 L 322.15,251.57 L 335.56,264.00 L 349.41,276.43 L 362.82,284.71 L 376.67,288.86 L 390.52,288.86 L 403.04,293.00 L 416.89,305.43 L 430.30,309.57 L 444.15,313.71 L 457.55,313.71 L 471.41,322.00 L 485.26,317.86 L 512.52,313.71 L 525.93,317.86 L 539.78,317.86 L 553.63,317.86 L 566.15,317.86" fill="none" stroke="#E3120B" stroke-width="2.4" stroke-linecap="round" stroke-linejoin="round"/>
<path d="M 50.00,160.43 L 63.85,152.14 L 76.37,156.29 L 90.22,168.71 L 103.63,177.00 L 117.48,189.43 L 130.89,197.71 L 144.74,197.71 L 158.59,206.00 L 172.00,214.29 L 185.85,230.86 L 199.26,230.86 L 213.11,235.00 L 226.96,247.43 L 239.92,247.43 L 253.78,251.57 L 267.18,251.57 L 281.04,251.57 L 294.44,255.71 L 308.30,259.86 L 322.15,259.86 L 335.56,259.86 L 349.41,264.00 L 362.82,264.00 L 376.67,268.14 L 390.52,268.14 L 403.04,272.29 L 416.89,276.43 L 430.30,280.57 L 444.15,280.57 L 457.55,280.57 L 471.41,280.57 L 485.26,284.71 L 512.52,284.71 L 525.93,284.71 L 539.78,284.71 L 553.63,288.86 L 566.15,288.86" fill="none" stroke="#E89B9A" stroke-width="2" stroke-linecap="round" stroke-linejoin="round"/>
<path d="M 50.00,218.43 L 63.85,218.43 L 76.37,214.29 L 90.22,222.57 L 103.63,214.29 L 117.48,222.57 L 130.89,218.43 L 144.74,222.57 L 158.59,226.71 L 172.00,230.86 L 185.85,230.86 L 199.26,230.86 L 213.11,239.14 L 226.96,243.29 L 239.92,247.43 L 253.78,239.14 L 267.18,251.57 L 281.04,247.43 L 294.44,247.43 L 308.30,251.57 L 322.15,255.71 L 335.56,259.86 L 349.41,268.14 L 362.82,272.29 L 376.67,268.14 L 390.52,272.29 L 403.04,268.14 L 416.89,272.29 L 430.30,272.29 L 444.15,280.57 L 457.55,280.57 L 471.41,280.57 L 485.26,284.71 L 512.52,280.57 L 525.93,280.57 L 539.78,280.57 L 553.63,276.43 L 566.15,280.57" fill="none" stroke="#9DC3E6" stroke-width="2" stroke-linecap="round" stroke-linejoin="round"/>
<path d="M 50.00,255.71 L 63.85,251.57 L 76.37,239.14 L 90.22,239.14 L 103.63,235.00 L 117.48,230.86 L 130.89,230.86 L 144.74,230.86 L 158.59,235.00 L 172.00,239.14 L 185.85,243.29 L 199.26,247.43 L 213.11,243.29 L 226.96,247.43 L 239.92,259.86 L 253.78,255.71 L 267.18,264.00 L 281.04,268.14 L 294.44,268.14 L 308.30,268.14 L 322.15,264.00 L 335.56,255.71 L 349.41,255.71 L 362.82,255.71 L 376.67,259.86 L 390.52,259.86 L 403.04,255.71 L 416.89,264.00 L 430.30,264.00 L 444.15,264.00 L 457.55,268.14 L 471.41,268.14 L 485.26,276.43 L 512.52,284.71 L 525.93,297.14 L 539.78,301.29 L 553.63,301.29 L 566.15,305.43" fill="none" stroke="#006BA2" stroke-width="2.4" stroke-linecap="round" stroke-linejoin="round"/>
<text x="584" y="284.57142857142856" font-size="11" font-weight="600" fill="#9DC3E6">3분위</text>
<text x="584" y="298.57142857142856" font-size="11" font-weight="600" fill="#E89B9A">2분위</text>
<text x="584" y="312.57142857142856" font-size="11" font-weight="600" fill="#006BA2">4분위 (고임금)</text>
<text x="584" y="326.57142857142856" font-size="11" font-weight="600" fill="#E3120B">1분위 (저임금)</text>
<text x="20" y="438" font-size="10" fill="#5C5C5C">출처: 미국 노동통계국 CPS, 애틀랜타 연준(Wage Growth Tracker). 12개월 이동평균.</text>
<text x="20" y="452" font-size="10" fill="#5C5C5C">주: 1분위(저임금)는 2023~2024년 한때 4분위보다 빠르게 상승하기도 했다.</text>
</svg>