<svg xmlns="http://www.w3.org/2000/svg" viewBox="0 0 800 460" font-family="'Helvetica Neue', 'Noto Sans KR', 'AppleGothic', Arial, sans-serif">
<rect width="800" height="460" fill="#FBF4E9"/>
<rect x="20" y="20" width="32" height="4" fill="#E3120B"/>
<text x="20" y="50" font-size="17" font-weight="700" fill="#1A1A1A">한국 자산 K자의 본질은 부동산</text>
<text x="20" y="70" font-size="12" fill="#5C5C5C">2024년 소득1분위·5분위 가구의 평균 자산 구성 (만원)</text>
<text x="42" y="133.0" font-size="12" font-weight="600" fill="#1A1A1A" text-anchor="end">5분위</text>
<rect x="50.0" y="110" width="369.5" height="38" fill="#E3120B"/>
<rect x="419.5" y="110" width="29.3" height="38" fill="#006BA2"/>
<rect x="448.8" y="110" width="100.7" height="38" fill="#9DC3E6"/>
<rect x="549.6" y="110" width="24.1" height="38" fill="#9E9E9E"/>
<text x="579.7" y="133.0" font-size="11" fill="#1A1A1A">12.4억</text>
<text x="42" y="183.0" font-size="12" font-weight="600" fill="#1A1A1A" text-anchor="end">4분위</text>
<rect x="50.0" y="160" width="178.7" height="38" fill="#E3120B"/>
<rect x="228.7" y="160" width="6.9" height="38" fill="#006BA2"/>
<rect x="235.5" y="160" width="53.8" height="38" fill="#9DC3E6"/>
<rect x="289.4" y="160" width="14.3" height="38" fill="#9E9E9E"/>
<text x="309.6" y="183.0" font-size="11" fill="#1A1A1A">6.0억</text>
<text x="42" y="233.0" font-size="12" font-weight="600" fill="#1A1A1A" text-anchor="end">3분위</text>
<rect x="50.0" y="210" width="119.5" height="38" fill="#E3120B"/>
<rect x="169.5" y="210" width="3.8" height="38" fill="#006BA2"/>
<rect x="173.3" y="210" width="40.8" height="38" fill="#9DC3E6"/>
<rect x="214.1" y="210" width="9.6" height="38" fill="#9E9E9E"/>
<text x="229.7" y="233.0" font-size="11" fill="#1A1A1A">4.1억</text>
<text x="42" y="283.0" font-size="12" font-weight="600" fill="#1A1A1A" text-anchor="end">2분위</text>
<rect x="50.0" y="260" width="83.2" height="38" fill="#E3120B"/>
<rect x="133.2" y="260" width="2.5" height="38" fill="#006BA2"/>
<rect x="135.7" y="260" width="29.4" height="38" fill="#9DC3E6"/>
<rect x="165.1" y="260" width="4.9" height="38" fill="#9E9E9E"/>
<text x="176.0" y="283.0" font-size="11" fill="#1A1A1A">2.8억</text>
<text x="42" y="333.0" font-size="12" font-weight="600" fill="#1A1A1A" text-anchor="end">1분위</text>
<rect x="50.0" y="310" width="54.8" height="38" fill="#E3120B"/>
<rect x="104.8" y="310" width="1.4" height="38" fill="#006BA2"/>
<rect x="106.2" y="310" width="14.2" height="38" fill="#9DC3E6"/>
<rect x="120.4" y="310" width="1.3" height="38" fill="#9E9E9E"/>
<text x="127.7" y="333.0" font-size="11" fill="#1A1A1A">1.7억</text>
<rect x="50" y="371" width="13" height="13" fill="#E3120B"/>
<text x="68" y="381" font-size="11" fill="#1A1A1A">부동산</text>
<rect x="180" y="371" width="13" height="13" fill="#006BA2"/>
<text x="198" y="381" font-size="11" fill="#1A1A1A">주식·채권·펀드</text>
<rect x="310" y="371" width="13" height="13" fill="#9DC3E6"/>
<text x="328" y="381" font-size="11" fill="#1A1A1A">기타 금융자산</text>
<rect x="440" y="371" width="13" height="13" fill="#9E9E9E"/>
<text x="458" y="381" font-size="11" fill="#1A1A1A">기타 실물</text>
<text x="20" y="438" font-size="10" fill="#5C5C5C">출처: 한국은행 ECOS / 통계청 가계금융복지조사 (2024년 기준).</text>
<text x="20" y="452" font-size="10" fill="#5C5C5C">주: 5분위 부동산 8.7억 vs 1분위 1.3억(6.7배). 주식·채권·펀드는 5분위 6,933만 vs 1분위 338만(20.5배).</text>
</svg>