<svg xmlns="http://www.w3.org/2000/svg" viewBox="0 0 800 460" font-family="'Helvetica Neue', 'Noto Sans KR', 'AppleGothic', Arial, sans-serif">
<rect width="800" height="460" fill="#FBF4E9"/>
<rect x="20" y="20" width="32" height="4" fill="#E3120B"/>
<text x="20" y="50" font-size="17" font-weight="700" fill="#1A1A1A">소득은 평등해지는데, 자산은 격차가 벌어진다</text>
<text x="20" y="70" font-size="12" fill="#5C5C5C">2017–2024년 한국의 두 가지 분배 지표</text>
<line x1="60" y1="360" x2="600" y2="360" stroke="#1A1A1A" stroke-width="1"/>
<line x1="57" y1="343.75000000000006" x2="60" y2="343.75000000000006" stroke="#1A1A1A" stroke-width="0.7"/>
<text x="53" y="347.75000000000006" font-size="10" fill="#006BA2" text-anchor="end">5.5</text>
<line x1="57" y1="262.50000000000006" x2="60" y2="262.50000000000006" stroke="#1A1A1A" stroke-width="0.7"/>
<text x="53" y="266.50000000000006" font-size="10" fill="#006BA2" text-anchor="end">6.0</text>
<line x1="57" y1="181.25000000000003" x2="60" y2="181.25000000000003" stroke="#1A1A1A" stroke-width="0.7"/>
<text x="53" y="185.25000000000003" font-size="10" fill="#006BA2" text-anchor="end">6.5</text>
<line x1="57" y1="100.0" x2="60" y2="100.0" stroke="#1A1A1A" stroke-width="0.7"/>
<text x="53" y="104.0" font-size="10" fill="#006BA2" text-anchor="end">7.0</text>
<line x1="600" y1="360.0" x2="603" y2="360.0" stroke="#1A1A1A" stroke-width="0.7"/>
<text x="607" y="364.0" font-size="10" fill="#E3120B">5.5</text>
<line x1="600" y1="295.0" x2="603" y2="295.0" stroke="#1A1A1A" stroke-width="0.7"/>
<text x="607" y="299.0" font-size="10" fill="#E3120B">6.0</text>
<line x1="600" y1="230.0" x2="603" y2="230.0" stroke="#1A1A1A" stroke-width="0.7"/>
<text x="607" y="234.0" font-size="10" fill="#E3120B">6.5</text>
<line x1="600" y1="165.0" x2="603" y2="165.0" stroke="#1A1A1A" stroke-width="0.7"/>
<text x="607" y="169.0" font-size="10" fill="#E3120B">7.0</text>
<line x1="600" y1="100.0" x2="603" y2="100.0" stroke="#1A1A1A" stroke-width="0.7"/>
<text x="607" y="104.0" font-size="10" fill="#E3120B">7.5</text>
<line x1="60" y1="343.75000000000006" x2="600" y2="343.75000000000006" stroke="#CDC9C3" stroke-width="0.5" opacity="0.5"/>
<line x1="60" y1="262.50000000000006" x2="600" y2="262.50000000000006" stroke="#CDC9C3" stroke-width="0.5" opacity="0.5"/>
<line x1="60" y1="181.25000000000003" x2="600" y2="181.25000000000003" stroke="#CDC9C3" stroke-width="0.5" opacity="0.5"/>
<line x1="60" y1="100.0" x2="600" y2="100.0" stroke="#CDC9C3" stroke-width="0.5" opacity="0.5"/>
<text x="60.0" y="378" font-size="11" fill="#1A1A1A" text-anchor="middle">2017</text>
<text x="137.14285714285714" y="378" font-size="11" fill="#1A1A1A" text-anchor="middle">2018</text>
<text x="214.28571428571428" y="378" font-size="11" fill="#1A1A1A" text-anchor="middle">2019</text>
<text x="291.42857142857144" y="378" font-size="11" fill="#1A1A1A" text-anchor="middle">2020</text>
<text x="368.57142857142856" y="378" font-size="11" fill="#1A1A1A" text-anchor="middle">2021</text>
<text x="445.7142857142857" y="378" font-size="11" fill="#1A1A1A" text-anchor="middle">2022</text>
<text x="522.8571428571429" y="378" font-size="11" fill="#1A1A1A" text-anchor="middle">2023</text>
<text x="600.0" y="378" font-size="11" fill="#1A1A1A" text-anchor="middle">2024</text>
<path d="M 60.00,126.00 L 137.14,192.63 L 214.29,234.88 L 291.43,303.13 L 368.57,290.12 L 445.71,301.50 L 522.86,308.00 L 600.00,298.25" fill="none" stroke="#006BA2" stroke-width="2.6" stroke-linecap="round" stroke-linejoin="round"/>
<circle cx="60.0" cy="126.00000000000003" r="3" fill="#006BA2"/>
<circle cx="137.14285714285714" cy="192.62500000000009" r="3" fill="#006BA2"/>
<circle cx="214.28571428571428" cy="234.87500000000006" r="3" fill="#006BA2"/>
<circle cx="291.42857142857144" cy="303.12500000000006" r="3" fill="#006BA2"/>
<circle cx="368.57142857142856" cy="290.125" r="3" fill="#006BA2"/>
<circle cx="445.7142857142857" cy="301.50000000000006" r="3" fill="#006BA2"/>
<circle cx="522.8571428571429" cy="308.0000000000001" r="3" fill="#006BA2"/>
<circle cx="600.0" cy="298.25" r="3" fill="#006BA2"/>
<path d="M 60.00,271.58 L 137.14,261.75 L 214.29,201.66 L 291.43,202.94 L 368.57,278.36 L 445.71,219.59 L 522.86,251.42 L 600.00,178.59" fill="none" stroke="#E3120B" stroke-width="2.6" stroke-linecap="round" stroke-linejoin="round"/>
<circle cx="60.0" cy="271.58410949880135" r="3" fill="#E3120B"/>
<circle cx="137.14285714285714" cy="261.75452562061446" r="3" fill="#E3120B"/>
<circle cx="214.28571428571428" cy="201.65999999999988" r="3" fill="#E3120B"/>
<circle cx="291.42857142857144" cy="202.94248403505972" r="3" fill="#E3120B"/>
<circle cx="368.57142857142856" cy="278.3562029628725" r="3" fill="#E3120B"/>
<circle cx="445.7142857142857" cy="219.5937542954765" r="3" fill="#E3120B"/>
<circle cx="522.8571428571429" cy="251.42368290193417" r="3" fill="#E3120B"/>
<circle cx="600.0" cy="178.59392008761907" r="3" fill="#E3120B"/>
<text x="281.42857142857144" y="291.12500000000006" font-size="11" font-weight="600" fill="#006BA2" text-anchor="middle">처분가능소득 5분위배율</text>
<text x="281.42857142857144" y="307.12500000000006" font-size="10" fill="#006BA2" text-anchor="middle">(좌측 축, 감소 추세)</text>
<text x="378.57142857142856" y="260.3562029628725" font-size="11" font-weight="600" fill="#E3120B">5분위/1분위 순자산비율</text>
<text x="378.57142857142856" y="274.3562029628725" font-size="10" fill="#E3120B">(우측 축, 증가 추세)</text>
<text x="53" y="90" font-size="10" fill="#006BA2" text-anchor="end">배 (소득)</text>
<text x="607" y="90" font-size="10" fill="#E3120B">배 (자산)</text>
<text x="20" y="438" font-size="10" fill="#5C5C5C">출처: 한국은행 ECOS / 통계청 소득분배지표 + 가계금융복지조사.</text>
<text x="20" y="452" font-size="10" fill="#5C5C5C">주: 처분가능소득 = 시장소득에 정부 재분배(세금·이전소득) 반영 후. 자산비율 = 5분위 순자산 ÷ 1분위 순자산.</text>
</svg>